HIERARCHY
ROOT Hips
{
	OFFSET -0.001795 -0.223333 0.028219
	CHANNELS 6 Xposition Yposition Zposition Zrotation Yrotation Xrotation 
	JOINT LeftUpLeg
	{
		OFFSET 0.069520 -0.091406 -0.006815
		CHANNELS 3 Zrotation Yrotation Xrotation
		JOINT LeftLeg
		{
			OFFSET 0.034277 -0.375199 -0.004496
			CHANNELS 3 Zrotation Yrotation Xrotation
			JOINT LeftFoot
			{
				OFFSET -0.013596 -0.397961 -0.043693
				CHANNELS 3 Zrotation Yrotation Xrotation
				JOINT LeftToe
				{
					OFFSET 0.026358 -0.055791 0.119288
					CHANNELS 3 Zrotation Yrotation Xrotation
					End Site
					{
						OFFSET 0.000000 0.000000 0.000000
					}
				}
			}
		}
	}
	JOINT RightUpLeg
	{
		OFFSET -0.067670 -0.090522 -0.004320
		CHANNELS 3 Zrotation Yrotation Xrotation
		JOINT RightLeg
		{
			OFFSET -0.038290 -0.382569 -0.008850
			CHANNELS 3 Zrotation Yrotation Xrotation
			JOINT RightFoot
			{
				OFFSET 0.015774 -0.398415 -0.042312
				CHANNELS 3 Zrotation Yrotation Xrotation
				JOINT RightToe
				{
					OFFSET -0.025372 -0.048144 0.123348
					CHANNELS 3 Zrotation Yrotation Xrotation
					End Site
					{
						OFFSET 0.000000 0.000000 0.000000
					}
				}
			}
		}
	}
	JOINT Spine
	{
		OFFSET -0.002533 0.108963 -0.026696
		CHANNELS 3 Zrotation Yrotation Xrotation
		JOINT Spine1
		{
			OFFSET 0.005487 0.135180 0.001092
			CHANNELS 3 Zrotation Yrotation Xrotation
			JOINT Spine2
			{
				OFFSET 0.001457 0.052922 0.025425
				CHANNELS 3 Zrotation Yrotation Xrotation
				JOINT Neck
				{
					OFFSET -0.002778 0.213870 -0.042857
					CHANNELS 3 Zrotation Yrotation Xrotation
					JOINT Head
					{
						OFFSET 0.005152 0.064970 0.051349
						CHANNELS 3 Zrotation Yrotation Xrotation
						End Site
						{
							OFFSET 0.000000 0.000000 0.000000
						}
					}
				}
				JOINT LeftShoulder
				{
					OFFSET 0.078845 0.121749 -0.034090
					CHANNELS 3 Zrotation Yrotation Xrotation
					JOINT LeftArm
					{
						OFFSET 0.090977 0.030469 -0.008868
						CHANNELS 3 Zrotation Yrotation Xrotation
						JOINT LeftForeArm
						{
							OFFSET 0.259612 -0.012772 -0.027456
							CHANNELS 3 Zrotation Yrotation Xrotation
							JOINT LeftHand
							{
								OFFSET 0.249234 0.008986 -0.001171
								CHANNELS 3 Zrotation Yrotation Xrotation
								End Site
								{
									OFFSET 0.000000 0.000000 0.000000
								}
							}
						}
					}
				}
				JOINT RightShoulder
				{
					OFFSET -0.081759 0.118833 -0.038615
					CHANNELS 3 Zrotation Yrotation Xrotation
					JOINT RightArm
					{
						OFFSET -0.096012 0.032551 -0.009143
						CHANNELS 3 Zrotation Yrotation Xrotation
						JOINT RightForeArm
						{
							OFFSET -0.253742 -0.013329 -0.021401
							CHANNELS 3 Zrotation Yrotation Xrotation
							JOINT RightHand
							{
								OFFSET -0.255298 0.007772 -0.005559
								CHANNELS 3 Zrotation Yrotation Xrotation
								End Site
								{
									OFFSET 0.000000 0.000000 0.000000
								}
							}
						}
					}
				}
			}
		}
	}
}
MOTION
Frames: 18
Frame Time: 0.050000
-0.033210 0.953139 -0.038562 -1.429372 1.529720 12.268709 6.265364 -0.878172 -16.366320 3.812612 -0.499103 1.561654 -0.461392 5.333111 16.134408 0.000000 0.000000 0.000000 -1.505666 1.389648 -15.295156 -5.928071 0.275395 -3.631357 1.486846 -5.436223 23.090451 0.000000 0.000000 0.000000 5.295455 -0.831530 6.245781 1.163747 -0.944970 8.671179 -10.063491 7.289430 0.080189 16.181333 -12.245726 -2.441073 0.000000 0.000000 0.000000 5.642013 -34.220103 10.500437 -15.551477 -28.798906 0.697339 -33.165499 -66.930413 22.323619 0.000000 0.000000 0.000000 -3.131063 20.014189 7.275782 27.064684 16.781804 0.755117 77.195123 68.093391 63.952253 0.000000 0.000000 0.000000 
-0.033847 0.953520 -0.041835 -1.409249 1.328180 13.097798 6.734907 -0.858753 -17.004927 3.087020 -0.366976 0.803024 -0.404228 5.536472 16.676848 0.000000 0.000000 0.000000 -1.294184 1.526521 -16.618907 -6.380383 0.332699 -3.325089 1.621843 -5.368072 23.419528 0.000000 0.000000 0.000000 4.899632 -0.921159 7.592550 1.391878 -1.077813 9.020373 -10.183786 6.598479 -0.119799 16.101402 -12.128406 -2.446462 0.000000 0.000000 0.000000 9.030336 -36.566779 10.681815 -12.007400 -31.293133 0.101666 -7.491259 -64.542898 5.313969 0.000000 0.000000 0.000000 -4.971562 22.352812 7.748530 25.327284 19.074379 1.119118 58.334298 73.247484 51.787727 0.000000 0.000000 0.000000 
-0.033300 0.954418 -0.044435 -1.614478 0.748199 13.434296 7.109087 -0.810822 -17.198674 2.745378 -0.310325 0.447129 -0.153551 5.934443 17.110086 0.000000 0.000000 0.000000 -1.029854 1.605192 -17.075950 -6.559037 0.307194 -3.651538 2.050164 -5.005522 23.974137 0.000000 0.000000 0.000000 4.778714 -1.060349 9.339854 1.455080 -1.103349 9.404047 -9.869943 5.964465 -0.723396 15.719649 -11.810162 -2.270510 0.000000 0.000000 0.000000 13.333186 -37.755925 10.211436 -8.656412 -33.447596 -0.599806 10.543353 -58.871973 -5.060286 0.000000 0.000000 0.000000 -6.479909 24.560308 8.205236 22.581394 21.013798 1.229347 31.171365 75.286635 30.363326 0.000000 0.000000 0.000000 
-0.032252 0.954841 -0.045833 -1.521429 0.319344 13.882615 7.207291 -0.802558 -17.536196 2.278756 -0.247298 0.192421 0.041836 6.234177 17.411485 0.000000 0.000000 0.000000 -1.134347 1.680267 -17.911825 -6.870494 0.372237 -3.166838 2.508247 -4.358822 23.846938 0.000000 0.000000 0.000000 4.365334 -1.104025 10.497756 1.778056 -1.283905 9.865130 -9.774664 5.651958 -0.969197 15.309856 -11.541081 -1.989215 0.000000 0.000000 0.000000 17.061839 -39.007069 9.705652 -4.058963 -34.458697 -1.674139 20.677468 -51.150679 -8.979563 0.000000 0.000000 0.000000 -7.752390 26.333403 8.541503 19.901388 22.523243 1.167490 4.854035 74.071089 9.339680 0.000000 0.000000 0.000000 
-0.031137 0.955465 -0.046132 -1.712755 -0.055351 14.282395 7.494537 -0.768780 -17.762393 2.018227 -0.208399 -0.044893 0.233004 6.512939 17.650957 0.000000 0.000000 0.000000 -0.894380 1.774945 -18.562157 -7.153264 0.418379 -2.872474 2.863307 -3.953881 24.011369 0.000000 0.000000 0.000000 4.015001 -1.123977 11.374185 1.935864 -1.354906 9.906163 -9.351583 5.542625 -1.032880 14.726785 -11.214280 -1.509105 0.000000 0.000000 0.000000 19.624074 -39.152642 9.174369 0.007802 -35.852486 -2.746506 23.870669 -40.729612 -8.025545 0.000000 0.000000 0.000000 -8.220517 27.650174 8.889411 17.847559 23.912574 1.087918 -7.822256 71.832744 -0.297539 0.000000 0.000000 0.000000 
-0.030377 0.955493 -0.045869 -2.021448 -0.166608 14.527663 7.696632 -0.749949 -17.965015 2.185608 -0.225328 -0.055955 0.338185 6.633265 17.613599 0.000000 0.000000 0.000000 -0.550938 1.879957 -19.237598 -7.341120 0.507895 -2.131021 3.026730 -3.728037 23.977897 0.000000 0.000000 0.000000 3.748246 -1.103772 11.615333 2.156734 -1.510099 10.647485 -8.952466 5.277869 -0.951103 14.239768 -11.074260 -0.735198 0.000000 0.000000 0.000000 21.739676 -39.954336 8.783619 4.687082 -35.740289 -3.853433 23.564126 -29.738140 -5.538023 0.000000 0.000000 0.000000 -8.820906 29.254310 9.269305 15.917395 24.889439 0.929246 -13.887284 69.305456 -4.601479 0.000000 0.000000 0.000000 
-0.029975 0.955765 -0.045450 -2.397043 -0.171460 14.588048 8.155424 -0.699200 -17.966637 2.067880 -0.211422 -0.087629 0.381558 6.680156 17.588154 0.000000 0.000000 0.000000 -0.114204 1.955110 -19.492552 -7.216733 0.538463 -1.733653 2.700715 -4.240854 23.965692 0.000000 0.000000 0.000000 3.521233 -1.118730 12.275989 2.395807 -1.679097 11.293115 -8.651444 5.036345 -1.326160 14.673259 -11.737606 0.261054 0.000000 0.000000 0.000000 24.283730 -40.927587 8.285398 8.509295 -35.555128 -4.742031 20.220195 -19.455246 -2.913866 0.000000 0.000000 0.000000 -9.087086 30.564458 9.647660 14.841588 25.621938 0.851799 -15.593172 67.467136 -5.692512 0.000000 0.000000 0.000000 
-0.029912 0.955446 -0.045108 -2.719610 -0.464590 14.858754 8.563119 -0.652410 -18.510861 1.968969 -0.234287 0.552448 0.629021 6.948605 17.414968 0.000000 0.000000 0.000000 0.254579 2.065122 -20.069663 -7.107924 0.591363 -1.093288 2.529106 -4.404156 23.391574 0.000000 0.000000 0.000000 3.057155 -1.084045 12.883787 2.557899 -1.741440 11.087912 -8.523642 4.962546 -0.668891 14.621907 -11.867926 0.690416 0.000000 0.000000 0.000000 25.691995 -42.009549 7.982884 12.060776 -35.151137 -5.511778 17.173499 -12.344740 -1.465008 0.000000 0.000000 0.000000 -9.418306 31.794868 9.948570 13.568624 26.280632 0.692148 -17.937346 65.140016 -7.043057 0.000000 0.000000 0.000000 
-0.030046 0.955827 -0.044876 -3.070587 -0.889932 14.929598 8.831315 -0.600966 -18.546707 2.145695 -0.264560 0.738857 0.867893 7.244787 17.480503 0.000000 0.000000 0.000000 0.526741 2.134915 -20.309091 -6.726452 0.567382 -0.953706 2.476807 -4.656777 23.607396 0.000000 0.000000 0.000000 2.704250 -1.050345 13.399896 2.545311 -1.732474 11.540237 -8.358855 4.899908 -0.898809 14.835462 -12.212332 1.248975 0.000000 0.000000 0.000000 27.051066 -43.125134 7.712462 13.002358 -33.957900 -5.444818 15.378246 -9.491725 -0.958708 0.000000 0.000000 0.000000 -9.521615 32.910893 10.300252 12.676009 27.271605 0.625745 -20.124846 60.708570 -7.818256 0.000000 0.000000 0.000000 
-0.030294 0.956178 -0.044757 -3.479256 -1.461657 14.973746 9.276551 -0.517523 -18.875690 2.112153 -0.304342 1.562826 1.209303 7.651168 17.464932 0.000000 0.000000 0.000000 1.252099 2.261828 -20.520391 -6.838858 0.600501 -0.679466 2.251557 -5.093673 23.410545 0.000000 0.000000 0.000000 2.492147 -1.012873 13.549097 2.703198 -1.810284 12.008684 -8.586417 4.891637 -0.865639 15.090147 -12.859443 2.463770 0.000000 0.000000 0.000000 26.821056 -44.123094 7.855943 12.724841 -33.265183 -5.205908 15.113836 -9.607142 -0.941485 0.000000 0.000000 0.000000 -9.881551 34.284637 10.645692 11.139549 27.875382 0.405137 -22.253298 54.769818 -8.078631 0.000000 0.000000 0.000000 
-0.030846 0.956893 -0.044863 -3.565596 -1.943982 14.976900 9.247259 -0.495879 -18.797136 2.324225 -0.335434 1.648628 1.409894 7.925143 17.716652 0.000000 0.000000 0.000000 1.583427 2.352657 -20.832152 -6.805833 0.611249 -0.500304 1.846657 -6.020198 24.012956 0.000000 0.000000 0.000000 2.144838 -0.971740 14.106671 2.281885 -1.560670 12.555171 -8.465335 4.948857 -0.756765 15.550091 -13.360610 2.750718 0.000000 0.000000 0.000000 27.102625 -45.166979 7.842216 11.350791 -32.097395 -4.642385 16.530138 -13.183674 -1.479319 0.000000 0.000000 0.000000 -10.683244 35.495467 10.792316 8.880441 28.508215 0.049801 -21.495058 46.450975 -6.443069 0.000000 0.000000 0.000000 
-0.031642 0.957217 -0.045147 -3.758737 -2.305476 14.883435 9.647575 -0.424921 -18.359437 2.037305 -0.281266 1.238795 1.576268 8.139676 17.886217 0.000000 0.000000 0.000000 2.018982 2.407832 -20.760273 -6.593782 0.581034 -0.577434 1.227971 -7.059956 24.033218 0.000000 0.000000 0.000000 2.060926 -0.982942 14.744672 2.047462 -1.399865 12.577189 -8.591028 5.566204 -0.116660 16.125483 -13.920130 2.691691 0.000000 0.000000 0.000000 27.455835 -45.521543 7.730147 10.530451 -31.626279 -4.430905 18.692445 -17.108499 -2.304207 0.000000 0.000000 0.000000 -12.132978 36.177395 10.540605 6.711252 29.011994 -0.284587 -19.597652 39.394630 -4.719715 0.000000 0.000000 0.000000 
-0.032550 0.957583 -0.045607 -3.827719 -2.700742 14.476672 9.842452 -0.373557 -17.943737 1.846716 -0.269246 1.435971 1.742801 8.338748 17.969453 0.000000 0.000000 0.000000 2.439290 2.482019 -20.834436 -6.576238 0.634533 -0.005773 0.552477 -8.248962 24.323972 0.000000 0.000000 0.000000 1.662346 -0.938024 15.611753 1.868236 -1.283239 12.798467 -8.692493 5.952062 0.038647 16.322125 -14.043790 2.457107 0.000000 0.000000 0.000000 27.882488 -45.411465 7.566225 9.144147 -31.285978 -4.111091 20.805214 -20.953946 -3.284543 0.000000 0.000000 0.000000 -13.713205 37.088843 10.295675 4.591017 28.906226 -0.619611 -17.307325 35.084136 -3.497075 0.000000 0.000000 0.000000 
-0.033469 0.957591 -0.045982 -3.821864 -2.715055 14.230623 9.903797 -0.359065 -17.776224 1.812131 -0.272054 1.579012 1.731688 8.320021 17.963454 0.000000 0.000000 0.000000 2.606896 2.477019 -20.622686 -6.540108 0.647061 0.148749 0.221777 -8.658802 23.960346 0.000000 0.000000 0.000000 1.822645 -0.997870 16.230912 1.475959 -1.027154 12.002887 -8.968972 6.565325 1.159950 16.522045 -14.373568 2.526266 0.000000 0.000000 0.000000 28.221123 -45.298890 7.397106 8.586375 -30.803662 -3.983297 22.594900 -23.992025 -4.245247 0.000000 0.000000 0.000000 -14.967755 37.078778 9.818160 4.037617 29.067295 -0.677048 -15.801607 33.244017 -2.878175 0.000000 0.000000 0.000000 
-0.034130 0.957870 -0.045889 -3.838785 -2.780321 13.995006 10.045565 -0.332319 -17.674804 1.638049 -0.265358 1.894929 1.747039 8.336927 17.983642 0.000000 0.000000 0.000000 2.516408 2.484006 -20.724956 -6.292866 0.692650 0.868323 0.281902 -8.503249 23.652556 0.000000 0.000000 0.000000 1.827516 -1.002983 16.398405 1.336036 -0.940329 11.931599 -9.243788 6.987543 1.800559 16.828533 -14.927814 2.998735 0.000000 0.000000 0.000000 27.981547 -45.285021 7.422723 7.948478 -29.778012 -3.715342 23.233347 -25.622345 -4.754482 0.000000 0.000000 0.000000 -15.608113 37.212344 9.589195 4.180965 28.457629 -0.627895 -15.454806 32.797626 -2.728178 0.000000 0.000000 0.000000 
-0.034560 0.958096 -0.045197 -3.768260 -2.564134 13.904534 10.042297 -0.338228 -17.757987 1.564002 -0.268322 2.171722 1.625991 8.193453 17.975636 0.000000 0.000000 0.000000 2.417653 2.478048 -20.803201 -6.054161 0.727025 1.473456 -0.079986 -8.872216 23.118790 0.000000 0.000000 0.000000 2.048068 -1.037666 16.148718 1.010300 -0.761729 11.942000 -9.337754 7.198074 2.543085 17.157391 -15.327740 3.041829 0.000000 0.000000 0.000000 27.348033 -45.262480 7.556969 7.170421 -29.110729 -3.478322 23.749359 -27.246101 -5.244070 0.000000 0.000000 0.000000 -15.309719 37.323182 9.656463 5.650481 27.511334 -0.401177 -16.357574 34.317539 -3.106574 0.000000 0.000000 0.000000 
-0.034723 0.958054 -0.043981 -3.475285 -1.828862 13.855010 9.789600 -0.406039 -17.783205 1.537313 -0.258750 2.045402 1.235122 7.725025 17.895725 0.000000 0.000000 0.000000 2.161839 2.395414 -20.568170 -6.102283 0.768292 1.793389 -0.459915 -9.061554 22.158159 0.000000 0.000000 0.000000 2.027074 -1.031454 15.799471 1.195645 -0.909550 11.758409 -9.431888 7.038189 3.180474 16.965123 -15.267485 3.177042 0.000000 0.000000 0.000000 24.927642 -45.133342 8.249058 7.093373 -29.158303 -3.467814 22.867409 -28.636754 -5.279855 0.000000 0.000000 0.000000 -12.936558 37.329398 10.424760 7.464016 26.218293 -0.209009 -16.512165 37.329411 -3.454391 0.000000 0.000000 0.000000 
-0.034747 0.957587 -0.042726 -3.040818 -1.393793 14.044462 9.699857 -0.443069 -18.103781 0.926128 -0.184917 2.121734 1.032343 7.477801 17.803946 0.000000 0.000000 0.000000 1.529776 2.329059 -20.785062 -5.679506 0.755711 2.161959 -1.032887 -9.708911 21.541330 0.000000 0.000000 0.000000 1.946211 -1.005496 15.439473 1.138198 -0.913535 11.991417 -9.648177 6.901117 3.365543 16.792819 -15.165478 3.274287 0.000000 0.000000 0.000000 23.556331 -45.416184 8.697808 6.217709 -28.768329 -3.249938 22.311266 -30.107098 -5.407232 0.000000 0.000000 0.000000 -11.476491 36.802444 10.764480 10.664239 24.844473 0.143376 -17.339047 40.895507 -4.067606 0.000000 0.000000 0.000000 
